<svg width="110" height="110" viewBox="0 0 110 110" fill="none" xmlns="http://www.w3.org/2000/svg">
<path d="M90 31C90 29.3431 88.6569 28 87 28H81C79.3431 28 78 29.3431 78 31V81H90V31Z" stroke="white" stroke-width="2"/>
<circle cx="9" cy="9" r="8" transform="matrix(-1 0 0 1 93 6)" stroke="white" stroke-width="2"/>
<mask id="mask0_1765_7321" style="mask-type:alpha" maskUnits="userSpaceOnUse" x="77" y="8" width="14" height="14">
<circle cx="7" cy="7" r="7" transform="matrix(-1 0 0 1 91 8)" fill="#D9D9D9"/>
</mask>
<g mask="url(#mask0_1765_7321)">
<path fill-rule="evenodd" clip-rule="evenodd" d="M84 16C82.3431 16 81 14.6569 81 13C81 11.3431 82.3431 10 84 10C85.6569 10 87 11.3431 87 13C87 14.6569 85.6569 16 84 16ZM84 16C80.6863 16 78 18.6863 78 22C78 25.3137 80.6863 28 84 28C87.3137 28 90 25.3137 90 22C90 18.6863 87.3137 16 84 16Z" fill="white"/>
</g>
<path d="M61 51C61 49.3431 59.6569 48 58 48H52C50.3431 48 49 49.3431 49 51V81H61V51Z" stroke="white" stroke-width="2"/>
<circle cx="9" cy="9" r="8" transform="matrix(-1 0 0 1 64 26)" stroke="white" stroke-width="2"/>
<mask id="mask1_1765_7321" style="mask-type:alpha" maskUnits="userSpaceOnUse" x="48" y="28" width="14" height="14">
<circle cx="7" cy="7" r="7" transform="matrix(-1 0 0 1 62 28)" fill="#D9D9D9"/>
</mask>
<g mask="url(#mask1_1765_7321)">
<path fill-rule="evenodd" clip-rule="evenodd" d="M55 36C53.3431 36 52 34.6569 52 33C52 31.3431 53.3431 30 55 30C56.6569 30 58 31.3431 58 33C58 34.6569 56.6569 36 55 36ZM55 36C51.6863 36 49 38.6863 49 42C49 45.3137 51.6863 48 55 48C58.3137 48 61 45.3137 61 42C61 38.6863 58.3137 36 55 36Z" fill="white"/>
</g>
<path d="M32 71C32 69.3431 30.6569 68 29 68H23C21.3431 68 20 69.3431 20 71V81H32V71Z" stroke="white" stroke-width="2"/>
<circle cx="9" cy="9" r="8" transform="matrix(-1 0 0 1 35 47)" stroke="white" stroke-width="2"/>
<mask id="mask2_1765_7321" style="mask-type:alpha" maskUnits="userSpaceOnUse" x="19" y="49" width="14" height="14">
<circle cx="7" cy="7" r="7" transform="matrix(-1 0 0 1 33 49)" fill="#D9D9D9"/>
</mask>
<g mask="url(#mask2_1765_7321)">
<path fill-rule="evenodd" clip-rule="evenodd" d="M26 57C24.3431 57 23 55.6569 23 54C23 52.3431 24.3431 51 26 51C27.6569 51 29 52.3431 29 54C29 55.6569 27.6569 57 26 57ZM26 57C22.6863 57 20 59.6863 20 63C20 66.3137 22.6863 69 26 69C29.3137 69 32 66.3137 32 63C32 59.6863 29.3137 57 26 57Z" fill="white"/>
</g>
</svg>
