<svg width="110" height="110" viewBox="0 0 110 110" fill="none" xmlns="http://www.w3.org/2000/svg">
<path fill-rule="evenodd" clip-rule="evenodd" d="M74.9714 39H99C101.209 39 103 37.2091 103 35V13C103 10.7909 101.209 9 99 9H73.0998C73.764 9.6271 74.3892 10.2951 74.9714 11H99C100.105 11 101 11.8954 101 13V35C101 36.1046 100.105 37 99 37H76.4421C75.9891 37.6948 75.4978 38.3625 74.9714 39ZM41.0286 39C40.5022 38.3625 40.0109 37.6948 39.5579 37H11C9.89543 37 9 36.1046 9 35V13C9 11.8954 9.89543 11 11 11H41.0286C41.6108 10.2951 42.236 9.6271 42.9002 9H11C8.79086 9 7 10.7909 7 13V35C7 37.2091 8.79086 39 11 39H41.0286Z" fill="white"/>
<path d="M57.75 42.75C67.6911 42.75 75.75 34.6911 75.75 24.75C75.75 14.8089 67.6911 6.75 57.75 6.75C47.8089 6.75 39.75 14.8089 39.75 24.75C39.75 34.6911 47.8089 42.75 57.75 42.75Z" stroke="white" stroke-width="2" stroke-linecap="round" stroke-linejoin="round"/>
<path d="M80.2504 47.2504L70.4629 37.4629" stroke="white" stroke-width="2" stroke-linecap="round" stroke-linejoin="round"/>
<path d="M19 23C18.4477 23 18 23.4477 18 24C18 24.5523 18.4477 25 19 25H35C35.5523 25 36 24.5523 36 24C36 23.4477 35.5523 23 35 23H19Z" fill="white"/>
<path d="M43 23C42.4477 23 42 23.4477 42 24C42 24.5523 42.4477 25 43 25H57C57.5523 25 58 24.5523 58 24C58 23.4477 57.5523 23 57 23H43Z" fill="white"/>
</svg>
