<svg width="110" height="110" viewBox="0 0 110 110" fill="none" xmlns="http://www.w3.org/2000/svg">
<path d="M96.9884 49C96.7318 37.958 92.2337 27.4225 84.4056 19.5944C76.3415 11.5303 65.4043 7 54 7C42.5957 7 31.6585 11.5303 23.5944 19.5944C15.7663 27.4225 11.2682 37.958 11.0116 49L20.1995 49C20.4539 40.3944 23.9835 32.1945 30.089 26.089C36.4306 19.7474 45.0317 16.1848 54 16.1848C62.9684 16.1848 71.5694 19.7474 77.911 26.089C84.0165 32.1945 87.5461 40.3944 87.8005 49H96.9884Z" stroke="white" stroke-width="2"/>
<path d="M50.5387 41.5774L73.4077 23.7904L56.1871 47.0888C54.7397 49.0471 51.8895 49.2596 50.1676 47.5378C48.4736 45.8437 48.6476 43.0482 50.5387 41.5774Z" stroke="white" stroke-width="2"/>
</svg>
