<svg width="110" height="110" viewBox="0 0 110 110" fill="none" xmlns="http://www.w3.org/2000/svg">
<mask id="path-1-inside-1_1800_8108" fill="white">
<path d="M69.5 9H76.75C78.6728 9 80.5169 9.85456 81.8765 11.3757C83.2362 12.8968 84 14.9599 84 17.1111V73.8889C84 76.0401 83.2362 78.1032 81.8765 79.6243C80.5169 81.1454 78.6728 82 76.75 82H33.25C31.3272 82 29.4831 81.1454 28.1235 79.6243C26.7638 78.1032 26 76.0401 26 73.8889V17.1111C26 14.9599 26.7638 12.8968 28.1235 11.3757C29.4831 9.85456 31.3272 9 33.25 9H40.5"/>
</mask>
<path d="M69.5 7C68.3954 7 67.5 7.89543 67.5 9C67.5 10.1046 68.3954 11 69.5 11V7ZM76.75 9V7V9ZM26 73.8889H24H26ZM33.25 9V7V9ZM40.5 11C41.6046 11 42.5 10.1046 42.5 9C42.5 7.89543 41.6046 7 40.5 7V11ZM69.5 11H76.75V7H69.5V11ZM76.75 11C78.0653 11 79.379 11.5826 80.3854 12.7085L83.3677 10.0428C81.6548 8.12651 79.2803 7 76.75 7V11ZM80.3854 12.7085C81.3983 13.8418 82 15.4224 82 17.1111H86C86 14.4974 85.074 11.9518 83.3677 10.0428L80.3854 12.7085ZM82 17.1111V73.8889H86V17.1111H82ZM82 73.8889C82 75.5776 81.3983 77.1582 80.3854 78.2915L83.3677 80.9571C85.074 79.0482 86 76.5026 86 73.8889H82ZM80.3854 78.2915C79.379 79.4174 78.0653 80 76.75 80V84C79.2803 84 81.6548 82.8735 83.3677 80.9571L80.3854 78.2915ZM76.75 80H33.25V84H76.75V80ZM33.25 80C31.9347 80 30.621 79.4174 29.6146 78.2915L26.6323 80.9571C28.3452 82.8735 30.7197 84 33.25 84V80ZM29.6146 78.2915C28.6017 77.1582 28 75.5776 28 73.8889H24C24 76.5026 24.926 79.0482 26.6323 80.9571L29.6146 78.2915ZM28 73.8889V17.1111H24V73.8889H28ZM28 17.1111C28 15.4224 28.6017 13.8418 29.6146 12.7085L26.6323 10.0428C24.926 11.9518 24 14.4974 24 17.1111H28ZM29.6146 12.7085C30.621 11.5826 31.9347 11 33.25 11V7C30.7197 7 28.3452 8.12651 26.6323 10.0428L29.6146 12.7085ZM33.25 11H40.5V7H33.25V11Z" fill="white" mask="url(#path-1-inside-1_1800_8108)"/>
<path d="M44.5 2H65.5C66.8168 2 68 3.16511 68 4.75V12.25C68 13.8349 66.8168 15 65.5 15H44.5C43.1832 15 42 13.8349 42 12.25V4.75C42 3.16511 43.1832 2 44.5 2Z" stroke="white" stroke-width="2" stroke-linecap="round" stroke-linejoin="round"/>
<rect x="34" y="23" width="42" height="3" rx="1.5" fill="white"/>
<rect x="34" y="29" width="42" height="3" rx="1.5" fill="white"/>
<rect x="34" y="35" width="42" height="3" rx="1.5" fill="white"/>
<rect x="34" y="41" width="21" height="3" rx="1.5" fill="white"/>
</svg>
